<svg xmlns="http://www.w3.org/2000/svg" version="1.1" viewBox="-5.0 -10.0 110.0 135.0">
 <path d="m12.949 39.613c-0.11719 0.45312 1.4961 9.7891 2.7969 19.812 1.2344 9.5547 2.5352 19.645 2.0547 24.738-0.20703 2.1953 3.0664 3.1602 7.2266 3.5625 4.3438 0.41797 9.6055 0.12891 13.691-0.089843 2.5859-0.12891 4.7188-0.24609 6.0195-0.15625 4.0938 0.28516 19.852 0.79297 30.941-0.87109 5.5391-0.83203 9.7227-2.0156 9.8398-3.668 0.44141-6.1484 0.46875-11.988 0.19531-17.734-0.27344-5.8125-0.84375-11.531-1.5977-17.461-0.23438-1.8594-0.35156-3.2891-0.45313-4.5117-0.45312-5.8633-0.50781-6.3711-16.328-6.5664-1.5859-0.011719-13.715 0.70312-24.012 1.4414-7.2422 0.50781-13.48 1.0156-14.211 1.2344-1.3906 0.42969-12.363 0.30078-15.574 0.26172h-0.58594zm19.578-31.707c4.1211 2.25 10.152 9.3086 15.133 15.121 2.3906 2.8086 4.5234 5.3047 5.7188 6.5898l0.70312-1.457c2.9375-6.0195 9.0742-18.617 9.1406-19.031l4.1211 0.59766c-0.15625 1.0781-6.4883 14.055-9.5156 20.254-0.84375 1.7422-1.3125 2.2891-1.3633 2.5859l-0.011719 0.027344c-0.027344 0.18359-0.066406 0.33984-0.10547 0.49219 5.5781-0.33984 10.051-0.57031 11.039-0.55859 19.629 0.23438 19.695 1.0547 20.438 10.387 0.089843 1.3008 0.22266 2.8086 0.41797 4.3164 0.76562 6.0586 1.3516 11.895 1.6367 17.785 0.27344 5.9414 0.24609 11.934-0.19531 18.227-0.30078 4.1484-5.9531 6.3711-13.391 7.4883-11.441 1.7148-27.641 1.1953-31.852 0.89844-1.0664-0.078125-3.082 0.039063-5.5 0.16797-4.2109 0.22266-9.6328 0.50781-14.301 0.066406-6.4609-0.625-11.492-2.6797-10.973-8.0859 0.44141-4.6406-0.83203-14.496-2.043-23.828-1.5977-12.391-3.0938-23.973 0.82031-24.469l0.27344-0.011719h0.85938c3.0547 0.039062 13.48 0.15625 14.312-0.078125 1.0781-0.33984 7.6445-0.89844 15.133-1.4297 2.7812-0.19531 5.7188-0.39063 8.543-0.57031-1.8594-1.5742-4.3047-4.4336-7.0586-7.6562-4.7461-5.5508-10.516-12.297-13.949-14.172l1.9766-3.6523zm-3.7188 42.562c0.22266 4.043 0.82031 13.469 1.4805 20.422 0.33984 3.7188-1.6367 6.4336-0.67578 6.4727 5.5117 0.24609 13.742 0.32422 21.504-0.011719 5.7969-0.24609 11.309-0.72656 15.172-1.5352 1.5352-0.32422 2.9766-0.24609 4.3047-0.18359 0.87109 0.039063 1.6914 0.089844 2.2617-0.011718 1.7148-0.32422 2.3906-2.9766-0.039063-16.172-0.37891-2.1172-0.59766-3.9922-0.80469-5.6562-0.625-5.4102-0.97656-8.332-7.5781-7.5547-2.8867 0.33984-6.3945 0.57031-10.168 0.82031-8.2031 0.54688-17.668 1.1836-24.234 3.1719l-1.2227 0.23438zm-2.6523 20.801c-0.80469-8.5156-1.5195-20.684-1.5859-22.438l-0.066406-1.7695 4.3945-0.84375c6.9805-2.0938 16.68-2.7422 25.078-3.3008 3.707-0.24609 7.1484-0.48047 9.9727-0.80469 10.727-1.2734 11.246 3.1211 12.195 11.207 0.19531 1.6523 0.41797 3.4844 0.76562 5.3945 3.0547 16.629 0.88281 20.23-3.3008 20.996-1.0664 0.19531-2.1055 0.14453-3.2383 0.078124-1.0664-0.050781-2.2109-0.10547-3.2383 0.10547-4.082 0.85938-9.8398 1.3633-15.859 1.6133-7.8789 0.33984-16.238 0.26172-21.84 0.027344-1.7422-0.078125-2.7422-4.4844-3.2773-10.258z" fill="white"/>
</svg>